<svg xmlns="http://www.w3.org/2000/svg" viewBox="0 0 1040 64"><defs><style>.cls-1{fill:#fff;}.cls-2{fill:#141414;}.cls-3{opacity:0.91;}.cls-4{opacity:0.82;}.cls-5{opacity:0.73;}.cls-6{opacity:0.64;}.cls-7{opacity:0.55;}.cls-8{opacity:0.46;}.cls-9{opacity:0.37;}.cls-10{opacity:0.28;}.cls-11{opacity:0.19;}.cls-12{opacity:0.1;}.cls-13{fill:none;stroke:#141414;stroke-miterlimit:10;stroke-width:4px;}</style></defs><g id="Layer_2" data-name="Layer 2"><g id="Layer_1-2" data-name="Layer 1"><rect class="cls-1" x="130" y="2" width="60" height="60"/><path class="cls-2" d="M188,4V60H132V4h56m4-4H128V64h64V0Z"/><g class="cls-3"><rect class="cls-1" x="202" y="2" width="60" height="60"/><path class="cls-2" d="M260,4V60H204V4h56m4-4H200V64h64V0Z"/></g><g class="cls-4"><rect class="cls-1" x="274" y="2" width="60" height="60"/><path class="cls-2" d="M332,4V60H276V4h56m4-4H272V64h64V0Z"/></g><g class="cls-5"><rect class="cls-1" x="346" y="2" width="60" height="60"/><path class="cls-2" d="M404,4V60H348V4h56m4-4H344V64h64V0Z"/></g><g class="cls-6"><rect class="cls-1" x="418" y="2" width="60" height="60"/><path class="cls-2" d="M476,4V60H420V4h56m4-4H416V64h64V0Z"/></g><g class="cls-7"><rect class="cls-1" x="490" y="2" width="60" height="60"/><path class="cls-2" d="M548,4V60H492V4h56m4-4H488V64h64V0Z"/></g><g class="cls-8"><rect class="cls-1" x="562" y="2" width="60" height="60"/><path class="cls-2" d="M620,4V60H564V4h56m4-4H560V64h64V0Z"/></g><g class="cls-9"><rect class="cls-1" x="634" y="2" width="60" height="60"/><path class="cls-2" d="M692,4V60H636V4h56m4-4H632V64h64V0Z"/></g><g class="cls-10"><rect class="cls-1" x="706" y="2" width="60" height="60"/><path class="cls-2" d="M764,4V60H708V4h56m4-4H704V64h64V0Z"/></g><g class="cls-11"><rect class="cls-1" x="778" y="2" width="60" height="60"/><path class="cls-2" d="M836,4V60H780V4h56m4-4H776V64h64V0Z"/></g><g class="cls-12"><rect class="cls-1" x="850" y="2" width="60" height="60"/><path class="cls-2" d="M908,4V60H852V4h56m4-4H848V64h64V0Z"/></g><rect class="cls-2" width="64" height="64"/><line class="cls-13" x1="96" y1="16" x2="96" y2="48"/><line class="cls-13" x1="80" y1="32" x2="112" y2="32"/><rect class="cls-2" x="976" width="64" height="64"/><rect class="cls-1" x="984" y="8" width="48" height="8"/><rect class="cls-1" x="984" y="21.33" width="48" height="8"/><rect class="cls-1" x="984" y="34.67" width="48" height="8"/><rect class="cls-1" x="984" y="48" width="16" height="8"/><line class="cls-13" x1="928" y1="32" x2="960" y2="32"/><polyline class="cls-13" points="952 24 960 32 952 40"/></g></g></svg>