<svg xmlns="http://www.w3.org/2000/svg" viewBox="0 0 515 72">
    <defs>
        <style>
            .white {
                fill: #fff;
            }
        </style>
    </defs>
        <g id="LostPoets" data-name="Layer 1">
            <path class="white"
                d="M19.06,63.51a1.36,1.36,0,0,1,1.37,1.3v5.82A1.42,1.42,0,0,1,19.06,72H1.37A1.42,1.42,0,0,1,0,70.63V1.37A1.42,1.42,0,0,1,1.37,0H19.06a1.42,1.42,0,0,1,1.37,1.37V7.12a1.37,1.37,0,0,1-1.37,1.37H9.93v55Z" />
            <path class="white"
                d="M50.92,19a1,1,0,0,1,1-1H58a1,1,0,0,1,1,1V46.43H71.22a1,1,0,0,1,1,1V53a1,1,0,0,1-1,1H51.9a1,1,0,0,1-1-1Z" />
            <path class="white"
                d="M111.87,17.5A18.5,18.5,0,1,1,93.42,36.05,18.46,18.46,0,0,1,111.87,17.5Zm0,28.78a10.28,10.28,0,1,0-10.22-10.23A10.3,10.3,0,0,0,111.87,46.28Z" />
            <path class="white"
                d="M153.6,49.1,156,44.84a1.32,1.32,0,0,1,1.75-.31c.2.1,3.9,2.83,7.29,2.83,2.06,0,3.55-1.29,3.55-3.09,0-2.15-1.8-3.8-5.29-5.19-4.42-1.74-10-5.19-10-11.36,0-5.08,4-10.22,11.87-10.22a19.1,19.1,0,0,1,11,3.85,1.3,1.3,0,0,1,.31,1.65l-2.62,4c-.36.56-1.28,1-1.75.66s-4.21-3.08-7.34-3.08a3,3,0,0,0-3.24,2.62c0,1.9,1.54,3.34,5.6,5s10.38,4.73,10.38,11.72c0,5.29-4.57,10.64-12.13,10.64-6.68,0-10.38-2.78-11.56-4C153.35,50,153.19,49.82,153.6,49.1Z" />
            <path class="white"
                d="M209,25.57h-7.35a1,1,0,0,1-1-1V19a1,1,0,0,1,1-1h22.82a1,1,0,0,1,1,1v5.6a1,1,0,0,1-1,1h-7.35V53a1,1,0,0,1-1,1H210a1,1,0,0,1-1-1Z" />
            <path class="white"
                d="M251.14,19a1,1,0,0,1,1-1H264.5a11.46,11.46,0,1,1,.06,22.92h-5.4V53a1,1,0,0,1-1,1h-6.06a1,1,0,0,1-1-1ZM264,33.43a4,4,0,0,0,4.06-4.06,3.92,3.92,0,0,0-4.06-3.8h-4.88v7.86Z" />
            <path class="white"
                d="M315.33,17.5a18.5,18.5,0,1,1-18.45,18.55A18.46,18.46,0,0,1,315.33,17.5Zm0,28.78A10.28,10.28,0,1,0,305.1,36.05,10.31,10.31,0,0,0,315.33,46.28Z" />
            <path class="white"
                d="M357,19a1,1,0,0,1,1-1h21.28a1,1,0,0,1,1,1v5.6a1,1,0,0,1-1,1H365v6.37h11.72a1,1,0,0,1,1,1v5.6a1,1,0,0,1-1,1H365v6.93h14.24a1,1,0,0,1,1,1V53a1,1,0,0,1-1,1H358a1,1,0,0,1-1-1Z" />
            <path class="white"
                d="M411.29,25.57h-7.35a1,1,0,0,1-1-1V19a1,1,0,0,1,1-1h22.81a1,1,0,0,1,1,1v5.6a1,1,0,0,1-1,1h-7.34V53a1,1,0,0,1-1,1h-6.17a1,1,0,0,1-1-1Z" />
            <path class="white"
                d="M449.66,49.1l2.41-4.26a1.32,1.32,0,0,1,1.75-.31c.2.1,3.91,2.83,7.3,2.83,2.05,0,3.54-1.29,3.54-3.09,0-2.15-1.8-3.8-5.29-5.19-4.42-1.74-10-5.19-10-11.36,0-5.08,4-10.22,11.87-10.22a19.11,19.11,0,0,1,11,3.85,1.33,1.33,0,0,1,.31,1.65L470,27c-.36.56-1.29,1-1.75.66s-4.22-3.08-7.35-3.08a3,3,0,0,0-3.24,2.62c0,1.9,1.54,3.34,5.6,5s10.38,4.73,10.38,11.72c0,5.29-4.57,10.64-12.12,10.64-6.68,0-10.38-2.78-11.57-4C449.4,50,449.25,49.82,449.66,49.1Z" />
            <path class="white"
                d="M495.94,8.49a1.36,1.36,0,0,1-1.37-1.3V1.37A1.42,1.42,0,0,1,495.94,0h17.69A1.42,1.42,0,0,1,515,1.37V70.63A1.42,1.42,0,0,1,513.63,72H495.94a1.42,1.42,0,0,1-1.37-1.37V64.88a1.37,1.37,0,0,1,1.37-1.37h9.13v-55Z" />
        </g>
</svg>