<svg xmlns="http://www.w3.org/2000/svg" viewBox="0 0 1056 144.08"><defs><style>.cls-1{fill:#fff;}.cls-2{fill:#141414;}</style></defs><g id="Layer_2" data-name="Layer 2"><g id="Layer_1-2" data-name="Layer 1"><rect class="cls-1" x="2" y="2.08" width="140" height="140"/><path class="cls-2" d="M140,4.08v136H4V4.08H140m4-4H0v144H144V.08Z"/><rect class="cls-1" x="306" y="2.08" width="140" height="140"/><path class="cls-2" d="M444,4.08v136H308V4.08H444m4-4H304v144H448V.08Z"/><rect class="cls-1" x="914" y="2.08" width="140" height="140"/><path class="cls-2" d="M1052,4.08v136H916V4.08h136m4-4H912v144h144V.08Z"/><rect class="cls-1" x="458" y="2.08" width="140" height="140"/><path class="cls-2" d="M596,4.08v136H460V4.08H596m4-4H456v144H600V.08Z"/><rect class="cls-2" x="152" y="0.08" width="144" height="144"/><path class="cls-1" d="M219.25,76.8V73.44c0-8.72,11.6-9.76,11.6-17.12,0-3.28-2.56-6.16-7.2-6.16-5.68,0-8.24,3.44-9.84,4.8a1.31,1.31,0,0,1-1.92,0l-2.64-2.56a1.5,1.5,0,0,1,0-2.08,19.29,19.29,0,0,1,15.2-7c8.32,0,14.72,5.28,14.72,12.88,0,10.08-12.4,11.92-12.4,17.6v3a1.53,1.53,0,0,1-1.68,1.6h-4.32A1.52,1.52,0,0,1,219.25,76.8Zm3.6,13a5.56,5.56,0,1,1-5.52,5.6A5.57,5.57,0,0,1,222.85,89.76Z"/><rect class="cls-2" x="608.83" width="144" height="144"/><path class="cls-1" d="M676.08,76.72V73.36c0-8.72,11.6-9.76,11.6-17.12,0-3.28-2.56-6.16-7.2-6.16-5.68,0-8.24,3.44-9.84,4.8a1.31,1.31,0,0,1-1.92,0l-2.64-2.56a1.5,1.5,0,0,1,0-2.08,19.29,19.29,0,0,1,15.2-7c8.32,0,14.72,5.28,14.72,12.88,0,10.08-12.4,11.92-12.4,17.6v3a1.53,1.53,0,0,1-1.68,1.6H677.6A1.52,1.52,0,0,1,676.08,76.72Zm3.6,13a5.56,5.56,0,1,1-5.52,5.6A5.57,5.57,0,0,1,679.68,89.68Z"/><rect class="cls-2" x="760" y="0.08" width="144" height="144"/><path class="cls-1" d="M827.25,76.8V73.44c0-8.72,11.6-9.76,11.6-17.12,0-3.28-2.56-6.16-7.2-6.16-5.68,0-8.24,3.44-9.84,4.8a1.31,1.31,0,0,1-1.92,0l-2.64-2.56a1.5,1.5,0,0,1,0-2.08,19.29,19.29,0,0,1,15.2-7c8.32,0,14.72,5.28,14.72,12.88,0,10.08-12.4,11.92-12.4,17.6v3a1.53,1.53,0,0,1-1.68,1.6h-4.32A1.52,1.52,0,0,1,827.25,76.8Zm3.6,13a5.56,5.56,0,1,1-5.52,5.6A5.57,5.57,0,0,1,830.85,89.76Z"/></g></g></svg>