<?xml version="1.0" standalone="no"?>
<!DOCTYPE svg PUBLIC "-//W3C//DTD SVG 20010904//EN"
 "http://www.w3.org/TR/2001/REC-SVG-20010904/DTD/svg10.dtd">
<svg version="1.0" xmlns="http://www.w3.org/2000/svg"
 width="504.000000pt" height="504.000000pt" viewBox="0 0 504.000000 504.000000"
 preserveAspectRatio="xMidYMid meet">
<metadata>
Created by potrace 1.14, written by Peter Selinger 2001-2017
</metadata>
<g transform="translate(0.000000,504.000000) scale(0.100000,-0.100000)"
fill="#000000" stroke="none">
<path d="M29 5011 l-29 -29 0 -2462 0 -2462 29 -29 29 -29 657 0 657 0 29 29
29 29 0 240 0 239 -26 27 -26 26 -342 2 -341 3 0 1925 0 1925 335 2 c223 2
342 7 356 14 40 21 44 50 44 290 l0 231 -29 29 -29 29 -657 0 -657 0 -29 -29z"/>
<path d="M3639 5011 l-29 -29 0 -240 0 -239 26 -27 26 -26 342 -2 341 -3 0
-1925 0 -1925 -335 -2 c-223 -2 -342 -7 -356 -14 -40 -21 -44 -50 -44 -290 l0
-231 29 -29 29 -29 657 0 657 0 29 29 29 29 0 2462 0 2462 -29 29 -29 29 -657
0 -657 0 -29 -29z"/>
</g>
</svg>
