<svg xmlns="http://www.w3.org/2000/svg" viewBox="0 0 162 162">
    <defs>
        <style>
            .white {
                fill: #fff;
            }

            .black {
                fill: #141414;
            }
        </style>
    </defs>

    <g id="unknown_pages">
        <rect class="white" x="20" y="2" width="140" height="140" />
        <path class="black" d="M158,4V140H22V4H158m4-4H18V144H162V0Z" />
        <rect class="white" x="11" y="11" width="140" height="140" />
        <path class="black" d="M149,13V149H13V13H149m4-4H9V153H153V9Z" />
        <rect class="black" y="18" width="144" height="144" />
        <path class="white"
            d="M67.25,94.72V91.36c0-8.72,11.6-9.76,11.6-17.12,0-3.28-2.56-6.16-7.2-6.16-5.68,0-8.24,3.44-9.84,4.8a1.31,1.31,0,0,1-1.92,0l-2.64-2.56a1.5,1.5,0,0,1,0-2.08,19.29,19.29,0,0,1,15.2-7c8.32,0,14.72,5.28,14.72,12.88,0,10.08-12.4,11.92-12.4,17.6v3a1.53,1.53,0,0,1-1.68,1.6H68.77A1.52,1.52,0,0,1,67.25,94.72Zm3.6,13a5.56,5.56,0,1,1-5.52,5.6A5.57,5.57,0,0,1,70.85,107.68Z" />
    </g>
</svg>